# xmcd CD database file
#
# Track frame offsets:
#	150
#	16391
#	29032
#	41356
#	56605
#	74305
#	80936
#	93549
#	111005
#	120492
#	132611
#	146544
#	157780
#	170837
#
# Disc length: 2443 seconds
#
# Revision: 0
# Processed by: cddbd v1.5.2PL0 Copyright (c) Steve Scherf et al.
# Submitted via: CDex 1.51
#
DISCID=c509890e
DTITLE=Various Artist - Goin' Country 14 Classic Country Hits
DYEAR=2009
DGENRE=Country
TTITLE0=Billie Jo Spears - Blanket On The Ground
TTITLE1=Johhny Cash - Ring Of Fire
TTITLE2=Patsy Cline - A Poor Man's Roses
TTITLE3=Kenny Rogers - For The Good Times
TTITLE4=Marie O'Brien - The Wind Beneath My Wings
TTITLE5=Jim Reeves - Have I Told You Lately That I Love You?
TTITLE6=Cindy Morgan - You're My Best Friend
TTITLE7=Don Williams - I Believe In You
TTITLE8=Faron Young - Remember Me (I'm The One Who Loves You)
TTITLE9=Billie Jo Spears - You Never Can Tell
TTITLE10=Conway Twitty - 15 Years Ago
TTITLE11=Patsy Cline - Just Out Of Reach (Of My Two Open Arms)
TTITLE12=George Jones - Hello Darlin'
TTITLE13=Freddy Fender - Almost Persuaded
EXTD=YEAR: 2009
EXTT0=
EXTT1=
EXTT2=
EXTT3=
EXTT4=
EXTT5=
EXTT6=
EXTT7=
EXTT8=
EXTT9=
EXTT10=
EXTT11=
EXTT12=
EXTT13=
PLAYORDER=
